<svg width="14" height="46" viewBox="0 0 14 46" fill="none" xmlns="http://www.w3.org/2000/svg">
<path d="M1.18848 17.6887C1.1759 17.7639 1.16332 17.839 1.15036 17.9165C0.896152 19.4458 0.749709 20.9687 0.854944 22.5063C0.879227 22.8738 0.888489 23.2408 0.897669 23.6092C1.04868 27.2043 2.09191 30.6582 3.6299 33.9267C3.68222 34.0383 3.73455 34.1499 3.78847 34.2648C4.61422 36.0081 5.54797 37.687 6.54181 39.3535C6.58614 39.428 6.63048 39.5025 6.67616 39.5792C6.76001 39.7198 6.84422 39.8602 6.92883 40.0004C7.13321 40.2958 7.13321 40.2958 7.19975 40.629C7.14407 40.591 7.08839 40.5529 7.03103 40.5137C3.92882 38.4031 3.92883 38.4031 2.96177 38.4404C2.63652 38.572 2.34872 38.7333 2.05901 38.9217C2.94015 41.0574 5.09097 42.1721 7.11007 43.3579C7.24389 43.4365 7.37745 43.5155 7.51074 43.5949C7.69943 43.7069 7.88926 43.8171 8.07956 43.9269C8.18954 43.9911 8.29952 44.0553 8.41283 44.1214C8.87037 44.3239 11.4232 45.6189 11.9114 45.4715C12.7876 45.1004 12.1641 43.392 11.7447 42.6382C11.5669 42.1123 11.5498 41.9883 11.5158 41.7409C11.5158 41.7409 11.4837 41.5548 11.4796 41.4788C11.4717 41.3345 11.5186 41.0685 11.5085 40.9244C11.4956 40.734 11.5447 40.5607 11.5373 40.3699C11.511 40.0903 11.5518 40.0927 11.5662 39.8154C11.5717 39.7093 11.5752 39.9209 11.5538 39.8258C11.5682 39.5485 11.6536 39.3108 11.6546 39.039C11.7485 37.1957 12.3916 35.3482 13.1692 33.6371C13.2758 33.3712 13.2758 33.3712 13.1849 33.1488C13.1434 33.1018 13.102 33.0548 13.0593 33.0064C12.6539 33.0692 12.4119 33.1684 12.0509 33.3458C11.9464 33.396 11.8419 33.4462 11.7343 33.4979C11.0691 33.908 10.7764 34.464 10.4704 35.1093C10.4314 35.1908 10.3923 35.2722 10.3521 35.3561C9.73388 36.6677 9.33441 37.9918 9.02249 39.3792C8.27259 38.0892 7.57408 36.7782 6.88948 35.4579C6.84884 35.3798 6.80822 35.3017 6.76635 35.2213C5.93581 33.6238 5.16059 32.0394 4.6251 30.3333C4.60241 30.262 4.57973 30.1907 4.55635 30.1173C3.98949 28.3284 3.59009 26.5185 3.47187 24.6472C3.46395 24.542 3.45603 24.4368 3.44787 24.3284C3.38913 23.4965 3.36514 22.6628 3.34229 21.8287C3.33541 21.6196 3.32485 21.4109 3.31432 21.2021C3.30628 20.9241 3.30941 20.6881 3.36338 20.4157C3.46251 19.8661 3.46251 19.8661 3.45622 19.6136C3.40671 19.5649 3.3572 19.5162 3.30618 19.4661C3.34919 19.3816 3.34919 19.3816 3.39307 19.2955C3.51361 18.979 3.54317 18.6848 3.57652 18.3537C3.61326 17.9949 3.65362 17.6708 3.75277 17.3199C3.70326 17.2712 3.65375 17.2225 3.60274 17.1724C3.52278 17.1942 3.44283 17.2159 3.36045 17.2384C3.60263 16.2727 3.8628 15.3159 4.19173 14.3687C4.26054 14.166 4.32357 13.9622 4.38672 13.7581C5.29922 10.9714 7.11181 7.96527 9.19207 5.73362C9.45907 5.44176 9.68189 5.13433 9.90541 4.81486C9.95492 4.86353 10.0044 4.91219 10.0554 4.96233C10.1165 4.90233 10.1776 4.84232 10.2406 4.78049C11.9303 3.12646 11.9303 3.12646 13.8277 1.67489C13.5585 1.24327 13.2997 1.00184 12.8524 0.716338C7.72587 0.655572 1.77783 14.0012 1.18848 17.6887Z" fill="#3E4D32"/>
</svg>
