<svg xmlns="http://www.w3.org/2000/svg" xmlns:xlink="http://www.w3.org/1999/xlink" width="375" zoomAndPan="magnify" viewBox="0 0 281.25 217.499992" height="290" preserveAspectRatio="xMidYMid meet" version="1.0"><defs><clipPath id="d6ae745483"><path d="M 31.789062 0.0390625 L 248.710938 0.0390625 L 248.710938 216.960938 L 31.789062 216.960938 Z M 31.789062 0.0390625 " clip-rule="nonzero"/></clipPath></defs><path fill="#d6a6a6" d="M 215.339844 100.15625 L 232.023438 100.15625 L 232.023438 116.84375 L 215.339844 116.84375 Z M 181.964844 100.15625 L 181.964844 116.84375 L 198.652344 116.84375 L 198.652344 100.15625 Z M 215.339844 83.472656 L 198.652344 83.472656 L 198.652344 100.15625 L 215.339844 100.15625 Z M 198.652344 133.53125 L 215.339844 133.53125 L 215.339844 116.84375 L 198.652344 116.84375 Z M 131.90625 66.785156 L 148.59375 66.785156 L 148.59375 50.101562 L 131.90625 50.101562 Z M 165.277344 50.101562 L 165.277344 33.414062 L 148.59375 33.414062 L 148.59375 50.101562 Z M 148.59375 16.726562 L 131.90625 16.726562 L 131.90625 33.414062 L 148.59375 33.414062 Z M 131.90625 33.414062 L 115.21875 33.414062 L 115.21875 50.101562 L 131.90625 50.101562 Z M 98.535156 116.84375 L 98.535156 100.15625 L 81.847656 100.15625 L 81.847656 116.84375 Z M 65.160156 100.15625 L 48.476562 100.15625 L 48.476562 116.84375 L 65.160156 116.84375 Z M 81.847656 83.472656 L 65.160156 83.472656 L 65.160156 100.15625 L 81.847656 100.15625 Z M 65.160156 133.53125 L 81.847656 133.53125 L 81.847656 116.84375 L 65.160156 116.84375 Z M 148.59375 183.589844 L 165.277344 183.589844 L 165.277344 166.902344 L 148.59375 166.902344 Z M 115.21875 166.902344 L 115.21875 183.589844 L 131.90625 183.589844 L 131.90625 166.902344 Z M 148.59375 150.214844 L 131.90625 150.214844 L 131.90625 166.902344 L 148.59375 166.902344 Z M 131.90625 200.273438 L 148.59375 200.273438 L 148.59375 183.589844 L 131.90625 183.589844 Z M 165.277344 83.472656 L 181.964844 83.472656 L 181.964844 66.785156 L 165.277344 66.785156 Z M 148.59375 100.15625 L 165.277344 100.15625 L 165.277344 83.472656 L 148.59375 83.472656 Z M 131.90625 116.84375 L 148.59375 116.84375 L 148.59375 100.15625 L 131.90625 100.15625 Z M 115.21875 133.53125 L 131.90625 133.53125 L 131.90625 116.84375 L 115.21875 116.84375 Z M 98.535156 150.214844 L 115.21875 150.214844 L 115.21875 133.53125 L 98.535156 133.53125 Z M 165.277344 133.53125 L 165.277344 116.84375 L 148.59375 116.84375 L 148.59375 133.53125 Z M 181.964844 150.214844 L 181.964844 133.53125 L 165.277344 133.53125 L 165.277344 150.214844 Z M 115.21875 83.472656 L 115.21875 100.15625 L 131.90625 100.15625 L 131.90625 83.472656 Z M 98.535156 66.785156 L 98.535156 83.472656 L 115.21875 83.472656 L 115.21875 66.785156 Z M 198.652344 166.902344 L 198.652344 150.214844 L 181.964844 150.214844 L 181.964844 166.902344 Z M 181.964844 66.785156 L 198.652344 66.785156 L 198.652344 50.101562 L 181.964844 50.101562 Z M 81.847656 50.101562 L 81.847656 66.785156 L 98.535156 66.785156 L 98.535156 50.101562 Z M 81.847656 166.902344 L 98.535156 166.902344 L 98.535156 150.214844 L 81.847656 150.214844 Z M 198.652344 200.273438 L 215.339844 200.273438 L 215.339844 183.589844 L 232.023438 183.589844 L 232.023438 166.902344 L 198.652344 166.902344 Z M 48.476562 166.902344 L 48.476562 183.589844 L 65.160156 183.589844 L 65.160156 200.273438 L 81.847656 200.273438 L 81.847656 166.902344 Z M 81.847656 16.726562 L 65.160156 16.726562 L 65.160156 33.414062 L 48.476562 33.414062 L 48.476562 50.101562 L 81.847656 50.101562 Z M 215.339844 33.414062 L 215.339844 16.726562 L 198.652344 16.726562 L 198.652344 50.101562 L 232.023438 50.101562 L 232.023438 33.414062 Z M 215.339844 33.414062 " fill-opacity="1" fill-rule="evenodd"/><g clip-path="url(#d6ae745483)"><path fill="#3e4d32" d="M 215.339844 83.472656 L 198.652344 83.472656 L 198.652344 66.785156 L 215.339844 66.785156 Z M 232.023438 100.15625 L 232.023438 83.472656 L 215.339844 83.472656 L 215.339844 100.15625 Z M 232.023438 100.15625 L 232.023438 116.84375 L 248.710938 116.84375 L 248.710938 100.15625 Z M 215.339844 133.53125 L 232.023438 133.53125 L 232.023438 116.84375 L 215.339844 116.84375 Z M 198.652344 150.214844 L 215.339844 150.214844 L 215.339844 133.53125 L 198.652344 133.53125 Z M 181.964844 116.84375 L 181.964844 133.53125 L 198.652344 133.53125 L 198.652344 116.84375 Z M 165.277344 100.15625 L 165.277344 116.84375 L 181.964844 116.84375 L 181.964844 100.15625 Z M 198.652344 83.472656 L 181.964844 83.472656 L 181.964844 100.15625 L 198.652344 100.15625 Z M 148.59375 0.0390625 L 131.90625 0.0390625 L 131.90625 16.726562 L 148.59375 16.726562 Z M 165.277344 33.414062 L 165.277344 16.726562 L 148.59375 16.726562 L 148.59375 33.414062 Z M 181.964844 50.101562 L 181.964844 33.414062 L 165.277344 33.414062 L 165.277344 50.101562 Z M 148.59375 66.785156 L 165.277344 66.785156 L 165.277344 50.101562 L 148.59375 50.101562 Z M 131.90625 83.472656 L 148.59375 83.472656 L 148.59375 66.785156 L 131.90625 66.785156 Z M 115.21875 50.101562 L 115.21875 66.785156 L 131.90625 66.785156 L 131.90625 50.101562 Z M 115.21875 33.414062 L 98.535156 33.414062 L 98.535156 50.101562 L 115.21875 50.101562 Z M 131.90625 16.726562 L 115.21875 16.726562 L 115.21875 33.414062 L 131.90625 33.414062 Z M 81.847656 66.785156 L 65.160156 66.785156 L 65.160156 83.472656 L 81.847656 83.472656 Z M 98.535156 100.15625 L 98.535156 83.472656 L 81.847656 83.472656 L 81.847656 100.15625 Z M 115.21875 116.84375 L 115.21875 100.15625 L 98.535156 100.15625 L 98.535156 116.84375 Z M 98.535156 116.84375 L 81.847656 116.84375 L 81.847656 133.53125 L 98.535156 133.53125 Z M 65.160156 150.214844 L 81.847656 150.214844 L 81.847656 133.53125 L 65.160156 133.53125 Z M 48.476562 116.84375 L 48.476562 133.53125 L 65.160156 133.53125 L 65.160156 116.84375 Z M 31.789062 100.15625 L 31.789062 116.84375 L 48.476562 116.84375 L 48.476562 100.15625 Z M 65.160156 83.472656 L 48.476562 83.472656 L 48.476562 100.15625 L 65.160156 100.15625 Z M 148.59375 133.53125 L 131.90625 133.53125 L 131.90625 150.214844 L 148.59375 150.214844 Z M 165.277344 166.902344 L 165.277344 150.214844 L 148.59375 150.214844 L 148.59375 166.902344 Z M 165.277344 183.589844 L 181.964844 183.589844 L 181.964844 166.902344 L 165.277344 166.902344 Z M 148.59375 200.273438 L 165.277344 200.273438 L 165.277344 183.589844 L 148.59375 183.589844 Z M 131.90625 216.960938 L 148.59375 216.960938 L 148.59375 200.273438 L 131.90625 200.273438 Z M 115.21875 183.589844 L 115.21875 200.273438 L 131.90625 200.273438 L 131.90625 183.589844 Z M 98.535156 166.902344 L 98.535156 183.589844 L 115.21875 183.589844 L 115.21875 166.902344 Z M 131.90625 150.214844 L 115.21875 150.214844 L 115.21875 166.902344 L 131.90625 166.902344 Z M 215.339844 200.273438 L 232.023438 200.273438 L 232.023438 183.589844 L 215.339844 183.589844 Z M 65.160156 16.726562 L 48.476562 16.726562 L 48.476562 33.414062 L 65.160156 33.414062 Z M 232.023438 16.726562 L 215.339844 16.726562 L 215.339844 33.414062 L 232.023438 33.414062 Z M 48.476562 200.273438 L 65.160156 200.273438 L 65.160156 183.589844 L 48.476562 183.589844 Z M 48.476562 200.273438 " fill-opacity="1" fill-rule="evenodd"/></g></svg>